<?xml version="1.0" encoding="UTF-8"?>
<svg id="logo" xmlns="http://www.w3.org/2000/svg" viewBox="0 0 2027.15 1290.8">
  <g>
    <path d="M918.76,541.65v2.25c13.5,0,22.83,2.84,28,8.52s7.75,16.12,7.75,31.31v69.66c0,3.34-.25,5.01-.74,5.01s-1.83-1.42-3.98-4.25l-86.28-112.5h-51.75v2.25c11.67,0,20.5,3.18,26.5,9.53,5,5.35,7.5,12.71,7.5,22.07v85.27c0,15.72-2.42,26.25-7.25,31.6-4.83,5.36-13.75,8.03-26.75,8.03v2.5h72.83v-2.5c-13.6,0-22.89-3.01-27.87-9.02-4.97-6.01-7.46-18.2-7.46-36.57v-81.65c0-3.01.25-4.51.75-4.51l2.74,3.25,99.26,132h6v-120.19c0-15.19,2.33-25.62,7-31.3,4.67-5.67,12.92-8.51,24.75-8.51v-2.25h-71Z"/>
    <path d="M1152.51,698.89c-1.17-.5-1.92-1-2.25-1.5-.5-1-.75-3.17-.75-6.51v-151.23l-48,4.25v2.25c10.33,0,17,.42,20,1.25,1,.34,2,1.17,3,2.51,1,1.34,1.5,3.68,1.5,7.02v133.94c0,4.01-.5,6.43-1.5,7.27-2.83,1-6.21,1.67-10.12,2.01-3.92.33-8.3.5-13.13.5v2.25h73v-2.25c-11,0-18.25-.58-21.75-1.76Z"/>
    <path d="M1291.51,669.4v-11h-3v2.24c0,2.48.04,4.88.12,7.2.09,2.32.13,4.64.13,6.96,0,8.45-.75,14.91-2.25,19.39-1.5,4.47-4.42,6.71-8.75,6.71-4.84,0-7.84-2.83-9-8.48-.5-2.33-.75-8.48-.75-18.46v-55.12c0-6.31-2.84-11.55-8.5-15.71-6.34-4.65-15.67-6.98-28-6.98-6.84,0-13.59,1.08-20.25,3.25-9.34,3-15.17,7.75-17.5,14.25-1,3-1.5,5.67-1.5,8,0,4.83,2.44,8.83,7.32,12,1.68,1.17,3.62,1.75,5.81,1.75,3.36,0,6.31-1.17,8.83-3.5,2.52-2.33,3.79-5.33,3.79-9,0-3.17-1-6-3-8.5s-4.59-3.75-7.75-3.75c-1,0-1.84.08-2.5.25,1.33-3.74,4.16-6.72,8.48-8.93,4.32-2.21,9.35-3.32,15.08-3.32,7.04,0,11.62,1.17,13.75,3.52,2.12,2.34,3.19,6.87,3.19,13.56v14.57c0,6.34-1.75,10.43-5.23,12.27-3.49,1.83-10.21,3.17-20.17,4-9.96.84-18.43,4.26-25.39,10.27-6.98,6.17-10.46,13.76-10.46,22.77s3.58,16.03,10.75,20.53c5.16,3.34,11.25,5.01,18.25,5.01s12.58-.83,16.75-2.48c7-2.8,12.25-8.26,15.75-16.35,1.34,7.1,4.1,12.14,8.29,15.11,3.52,2.48,8.88,3.72,16.09,3.72,9.22,0,15.33-2.09,18.35-6.25,2.34-3.33,3.52-9.83,3.52-19.5-.17-3.17-.25-6.5-.25-10ZM1244.51,675.52c0,7.54-2.54,13.94-7.63,19.22-5.08,5.27-10.79,7.91-17.12,7.91-4.17,0-7.21-1.72-9.13-5.15-1.91-3.43-2.87-10.01-2.87-19.72,0-9.05,1.66-16.08,5-21.1,2.83-4.19,6.66-6.87,11.5-8.04,3.66-.5,7.46-1.05,11.37-1.64,3.92-.58,6.88-2.22,8.88-4.9v33.42Z"/>
  </g>
  <g>
    <path d="M1064.58,570.35c-.17,1.32.86,2.74-.19,3.87-.34-1.38-1.01-2.39-2.12-3.29,1.18-1.47,2.9-1.74,4.64-1.94-1.41-2.19-3.72-4.17-4.54-6.69-1.16-3.59,1.14-7.49-1.1-10.92-2.31-3.53-14.08-11.31-18.18-12.03-.23-.04-.64-.1-.58.2l3.09,2.51-5.83-2.1c-2.91-7.72-4.52-16.04-10.29-22.28-8.34,7.49-14.77,20.74-13.22,32.23.3,2.16,1.37,4.14,2.22,6.1-2.01-1.71-3.6-4.26-3.48-6.97-.79.45-1.32,1.54-1.75,2.32-3.93,7.22-8.27,19-11.04,26.92-3.6,10.29-12.67,40.55-.46,52.71.58.58-2.15-19.49-1.92-18.73,1.55-3.41,4.14-6.3,7.78-8.67-1.41-9.09.17-18.64,5.39-30.02.27-.59.64-1.85,1.22-2.06-3.35,10.7-4.86,20.61-3.47,30.3,1.81-.9,3.81-1.7,6.01-2.41,1.97-.64,3.95-1.19,5.93-1.64,5.15-5.95,13.74-13.03,18.51-14.97.56-.22,1.03-.56,1.69-.43-4.78,5.21-10.4,9.63-15.53,14.52,3.2-.49,6.42-.73,9.65-.73,3.39,0,6.55.17,9.48.54-2.85-6.95-6.89-14.62,3.56-13.94,4.03.26,8.07,2.38,11.43-1.37,1.01-1.11,1.23-2.52,1.94-3.48,1.58-2.15,4.18-3.83,4.29-6.92l-3.13-.63ZM1053.35,572.67c-3.65-.78-7.29-2.04-11.04-2.32-3.01-.22-6.25.12-9.3,0-.47-.02-1.44.29-1.35-.39,7.2-1.02,15.57-1.91,21.69,2.71ZM1054.51,574.61c.1.67-.92.41-1.35.38-1.57-.12-3.49-.68-5.04-.77-4.99-.26-10.02.29-14.91,1.16.12-.71.79-.65,1.3-.82,6.34-2.15,13.7-2.06,20,.05ZM1026.61,551.18c-6.69-7.43-4.1-22.43,2.53-29.25,2.55,4.27,2.94,9.8,2.9,14.71l-3.48-1.54,2.32,6.19-4.64-1.16c.66,2.22,2.78,3.63,5.03,3.88-3.83,2.65-3.58,7.12,0,9.87-1.61.12-3.52-1.44-4.66-2.7ZM1045.6,578.29l-15.88,5.22c7.24-5.22,16.51-8.5,25.57-6.96l-9.69,1.74ZM1045.64,556.98c1.04-1.29,2.78-.95,4.23-.97-.07,1.77-.18,3.83,1.35,5.03,1.24-.78.87-1.71.98-2.9.05-.57-.33-1.12.56-.96l2.53,5.8c-5.51.75-7.81-1.01-9.65-6Z"/>
    <path d="M1097.01,669.4v-11h-3v2.24c0,2.48.04,4.88.13,7.2.08,2.32.12,4.64.12,6.96,0,8.45-.75,14.91-2.25,19.39-1.5,4.47-4.42,6.71-8.75,6.71-3.44,0-5.96-1.44-7.53-4.31-.65-1.16-1.14-2.55-1.47-4.17-.4-1.85-.64-6.12-.71-12.82-.03-1.72-.04-3.6-.04-5.64v-55.12c0-6.31-2.83-11.55-8.5-15.71-4.59-3.37-10.77-5.53-18.52-6.44-2.93-.37-6.09-.54-9.48-.54s-6.45.24-9.65.73c-1.56.23-3.12.53-4.67.88-1.98.45-3.96,1-5.93,1.64-2.2.71-4.2,1.51-6.01,2.41-1.12.56-2.17,1.15-3.14,1.78-3.64,2.37-6.23,5.26-7.78,8.67-.21.45-.4.92-.57,1.39-1,3-1.5,5.67-1.5,8,0,4.83,2.44,8.83,7.32,12,1.68,1.17,3.62,1.75,5.81,1.75,2.03,0,3.91-.43,5.63-1.28,1.13-.55,2.2-1.29,3.2-2.22.23-.22.46-.44.67-.67.89-.96,1.6-2.02,2.1-3.19.68-1.53,1.02-3.25,1.02-5.14,0-3.17-1-6-3-8.5-1.97-2.47-4.51-3.72-7.63-3.75h-.12c-1,0-1.83.08-2.5.25.41-1.17.98-2.27,1.69-3.29,1.56-2.24,3.83-4.12,6.8-5.64.38-.19.76-.38,1.15-.55,1.43-.65,2.93-1.19,4.51-1.61,2.89-.77,6.03-1.16,9.41-1.16,7.04,0,11.62,1.17,13.75,3.52.28.31.54.65.79,1.04.12.2.25.41.36.63,1.36,2.57,2.04,6.54,2.04,11.89v14.57c0,5.88-1.5,9.83-4.5,11.84-.24.15-.48.3-.73.43-.98.52-2.22,1-3.72,1.43-1.13.34-2.4.64-3.83.93-3.38.67-7.59,1.22-12.62,1.64-2.82.24-5.51.68-8.09,1.34-6.54,1.64-12.3,4.62-17.3,8.93-6.97,6.17-10.46,13.76-10.46,22.77s3.58,16.03,10.75,20.53c5.17,3.34,11.25,5.01,18.25,5.01,4.31,0,8.09-.32,11.33-.94,1.24-.25,2.4-.53,3.48-.87.68-.2,1.32-.43,1.94-.67.42-.17.83-.35,1.24-.54,6.38-2.93,11.22-8.21,14.51-15.81.4,2.14.94,4.1,1.61,5.87.16.45.34.88.53,1.3,1.5,3.45,3.55,6.09,6.16,7.94.94.66,2.01,1.24,3.21,1.72,3.3,1.33,7.59,2,12.87,2,9.22,0,15.34-2.09,18.35-6.25,2.35-3.33,3.52-9.83,3.52-19.5-.17-3.17-.25-6.5-.25-10ZM1050.01,675.52c0,7.54-2.54,13.94-7.62,19.22-2.34,2.41-4.81,4.28-7.4,5.58-.98.51-1.97.92-2.99,1.26-1.46.48-2.95.8-4.49.96-.74.07-1.49.11-2.25.11-4.17,0-7.21-1.72-9.12-5.15-1.38-2.46-2.26-6.54-2.65-12.23-.15-2.25-.23-4.74-.23-7.49,0-9.05,1.67-16.08,5-21.1,1.56-2.31,3.42-4.16,5.59-5.54.31-.21.63-.4.96-.57,1.51-.85,3.16-1.49,4.95-1.93,3.42-.47,6.95-.97,10.6-1.52.02,0,.04,0,.06,0,.24-.04.48-.07.72-.11.05,0,.1,0,.15-.02.52-.08,1.02-.18,1.5-.31,3.1-.75,5.51-2.28,7.22-4.57v33.42Z"/>
    <path d="M1055.67,544.01c-3.01-2.74-6.66-4.15-10.28-5.79-.38-.17-.91-.26-.95-.79,6.03-2.11,10.91-6.24,15.88-10.08l-4.65,16.66Z"/>
  </g>
</svg>